# File created by Blade
# Date/Time:  Fri Jan 16 19:32:17 2015
# Frame Rate: 120.000 fps
#------------------------------------------------------
:FULLY-SPECIFIED
:DEGREES
745
root 19.880398 35.458558 -20.258965 10.101646 10.927644 0.104734
Spine -22.263395 -9.265199 -2.140201
Head 17.383306 -4.817116 7.473157
LeftShoulder -6.468501 6.324184 0.134800
LeftArm -96.988760 49.380221 -170.318318
LeftForeArm 64.248557 0.000000 118.763523
LeftHand 13.047017 0.000000 -17.277190
LeftHandThumb1 -26.253704 0.000000 33.147579
RightShoulder -11.960813 10.592524 -29.077610
RightArm -349.074085 59.505405 -367.096291
RightForeArm -25.350291 -0.000000 22.427757
RightHand -4.149919 -0.000000 -16.356351
RightHandThumb1 -24.326973 -0.000000 -32.862282
LeftUpLeg -1.332384 0.260114 0.879109
LeftLeg -6.767170 -0.000000 0.000000
LeftFoot -19.890985 27.207522 -12.623680
LeftToeBase 25.841730 -0.000000 -0.000000
RightUpLeg 0.983128 -16.496271 -1.473842
RightLeg -4.305921 -0.000000 0.000000
RightFoot -23.020396 -24.879084 20.278383
RightToeBase 24.106409 -0.000000 -0.000000
746
root 19.880750 35.459376 -20.266028 10.096220 10.897521 0.090410
Spine -22.250609 -9.298642 -2.141656
Head 17.402828 -4.790562 7.499633
LeftShoulder -6.510189 6.352600 0.114561
LeftArm -97.094577 49.407351 -170.301434
LeftForeArm 64.559273 -0.000000 118.469070
LeftHand 13.350584 0.000000 -16.507864
LeftHandThumb1 -26.253704 0.000000 33.147579
RightShoulder -11.935714 10.516033 -28.999776
RightArm -349.260472 58.873698 -367.263387
RightForeArm -25.658371 -0.000000 21.727960
RightHand -4.169591 0.000000 -16.296207
RightHandThumb1 -24.326973 -0.000000 -32.862282
LeftUpLeg -1.339977 0.277897 0.886862
LeftLeg -6.761526 -0.000000 0.000000
LeftFoot -19.902666 27.211437 -12.633474
LeftToeBase 25.861214 -0.000000 -0.000000
RightUpLeg 0.953086 -16.483103 -1.462321
RightLeg -4.277916 -0.000000 0.000000
RightFoot -23.003486 -24.878164 20.243497
RightToeBase 24.091359 -0.000000 -0.000000
747
root 19.880765 35.460190 -20.271896 10.070448 10.865653 0.079516
Spine -22.203989 -9.291866 -2.171454
Head 17.400147 -4.814527 7.532240
LeftShoulder -6.540816 6.423968 0.087747
LeftArm -97.212715 49.495362 -170.243864
LeftForeArm 64.719426 -0.000000 118.245687
LeftHand 13.933783 0.000000 -15.972599
LeftHandThumb1 -26.253704 0.000000 33.147579
RightShoulder -11.967138 10.384204 -28.909512
RightArm -349.403073 58.278306 -367.387872
RightForeArm -26.028613 -0.000000 21.015807
RightHand -4.031906 -0.000000 -16.514368
RightHandThumb1 -24.326973 -0.000000 -32.862282
LeftUpLeg -1.319567 0.282705 0.892694
LeftLeg -6.763606 -0.000000 0.000000
LeftFoot -19.911970 27.231347 -12.651714
LeftToeBase 25.847212 -0.000000 -0.000000
RightUpLeg 0.956959 -16.464963 -1.462234
RightLeg -4.267523 -0.000000 0.000000
RightFoot -22.989816 -24.867188 20.219501
RightToeBase 24.135606 -0.000000 -0.000000
748
root 19.879968 35.460733 -20.277922 10.061837 10.837695 0.062765
Spine -22.199907 -9.300992 -2.185674
Head 17.430465 -4.833091 7.546830
LeftShoulder -6.545006 6.467398 0.081174
LeftArm -97.282852 49.525740 -170.216263
LeftForeArm 64.919522 -0.000000 117.988249
LeftHand 14.177725 -0.000000 -15.420463
LeftHandThumb1 -26.253704 0.000000 33.147579
RightShoulder -11.937764 10.220881 -28.839234
RightArm -349.631703 57.735368 -367.524086
RightForeArm -26.357441 -0.000000 20.301999
RightHand -3.974756 -0.000000 -16.310792
RightHandThumb1 -24.326973 -0.000000 -32.862282
LeftUpLeg -1.316554 0.284602 0.906917
LeftLeg -6.770245 -0.000000 0.000000
LeftFoot -19.909297 27.255334 -12.638532
LeftToeBase 25.831893 -0.000000 -0.000000
RightUpLeg 0.937822 -16.450915 -1.448704
RightLeg -4.249283 -0.000000 0.000000
RightFoot -22.992584 -24.847505 20.248221
RightToeBase 24.119178 -0.000000 -0.000000
749
root 19.880027 35.460782 -20.283612 10.060695 10.801993 0.045463
Spine -22.198368 -9.349098 -2.187598
Head 17.450237 -4.803738 7.604268
LeftShoulder -6.609683 6.475030 0.089020
LeftArm -97.412230 49.516482 -170.273837
LeftForeArm 65.185823 -0.000000 117.742244
LeftHand 14.326601 -0.000000 -14.972382
LeftHandThumb1 -26.253704 0.000000 33.147579
RightShoulder -11.904385 10.065220 -28.722658
RightArm -349.752417 57.149091 -367.620962
RightForeArm -26.632788 -0.000000 19.521715
RightHand -3.536231 -0.000000 -16.287761
RightHandThumb1 -24.326973 -0.000000 -32.862282
LeftUpLeg -1.320509 0.297737 0.917810
LeftLeg -6.772057 -0.000000 0.000000
LeftFoot -19.915533 27.272231 -12.623904
LeftToeBase 25.831245 -0.000000 -0.000000
RightUpLeg 0.915227 -16.446338 -1.432266
RightLeg -4.245362 -0.000000 0.000000
RightFoot -22.976240 -24.837910 20.236804
RightToeBase 24.100096 -0.000000 -0.000000
750
root 19.880036 35.461160 -20.289645 10.054678 10.767032 0.032734
Spine -22.197657 -9.347087 -2.209794
Head 17.492133 -4.840432 7.600523
LeftShoulder -6.621956 6.500319 0.097265
LeftArm -97.542912 49.541078 -170.314109
LeftForeArm 65.360310 -0.000000 117.569257
LeftHand 14.489012 -0.000000 -14.694203
LeftHandThumb1 -26.253704 0.000000 33.147579
RightShoulder -11.877551 9.930522 -28.633495
RightArm -349.968487 56.455383 -367.791654
RightForeArm -26.972902 -0.000000 18.741659
RightHand -3.377561 -0.000000 -16.243050
RightHandThumb1 -24.326973 -0.000000 -32.862282
LeftUpLeg -1.320479 0.313299 0.924871
LeftLeg -6.772637 -0.000000 0.000000
LeftFoot -19.916713 27.284376 -12.619833
LeftToeBase 25.853269 -0.000000 -0.000000
RightUpLeg 0.902699 -16.424123 -1.423404
RightLeg -4.243980 -0.000000 0.000000
RightFoot -22.953872 -24.833492 20.210664
RightToeBase 24.134600 -0.000000 -0.000000
751
root 19.880335 35.461224 -20.295899 10.049371 10.725970 0.018929
Spine -22.189090 -9.320807 -2.238466
Head 17.506608 -4.875685 7.633454
LeftShoulder -6.603659 6.541964 0.106680
LeftArm -97.707520 49.569298 -170.420337
LeftForeArm 65.612520 0.000000 117.392593
LeftHand 14.563164 -0.000000 -14.291161
LeftHandThumb1 -26.253704 0.000000 33.147579
RightShoulder -11.912521 9.726311 -28.520576
RightArm -350.056810 55.826479 -367.867313
RightForeArm -27.398366 -0.000000 17.920626
RightHand -3.298321 -0.000000 -16.289839
RightHandThumb1 -24.326973 -0.000000 -32.862282
LeftUpLeg -1.322692 0.344147 0.929558
LeftLeg -6.769331 -0.000000 0.000000
LeftFoot -19.916295 27.296407 -12.594866
LeftToeBase 25.837690 -0.000000 -0.000000
RightUpLeg 0.887545 -16.398216 -1.415323
RightLeg -4.243622 -0.000000 0.000000
RightFoot -22.926353 -24.832466 20.182048
RightToeBase 24.129372 -0.000000 -0.000000
